STARTFONT 2.1
COMMENT $XConsortium: lubBI18.bdf,v 1.11 94/04/02 16:24:40 gildea Exp $
COMMENT  (c) Copyright Bigelow & Holmes 1986, 1985. Lucida is a registered
COMMENT  trademark of Bigelow & Holmes. See LEGAL NOTICE file for terms 
COMMENT  of the license. 
COMMENT  
COMMENT  Translation to ISO8859-2 by Cub Soft;  Petr.Kolar@vslib.cz
COMMENT  
FONT -B&H-LucidaBright-DemiBold-I-Normal--25-180-100-100-P-149-ISO8859-2
SIZE 18 100 100
FONTBOUNDINGBOX 78 28 -15 -5
STARTPROPERTIES 20
COMMENT Begin LogicalFontDescription
FONTNAME_REGISTRY ""
FOUNDRY "B&H"
FAMILY_NAME "LucidaBright"
WEIGHT_NAME "DemiBold"
SLANT "I"
SETWIDTH_NAME "Normal"
ADD_STYLE_NAME ""
PIXEL_SIZE 25
POINT_SIZE 180
RESOLUTION_X 100
RESOLUTION_Y 100
SPACING "P"
AVERAGE_WIDTH 149
CHARSET_REGISTRY "ISO8859"
CHARSET_ENCODING "2"
COMMENT END LogicalFontDescription
FONT_ASCENT 23
FONT_DESCENT 6
DEFAULT_CHAR 0
COPYRIGHT "Copyright Bigelow & Holmes 1986, 1985., Copyright 1996 Cub Soft"
FACE_NAME "Lucida Bright Demibold Italic"
ENDPROPERTIES
CHARS 191
STARTCHAR space
ENCODING 32
SWIDTH 333 0
DWIDTH 8 0
BBX 1 1 0 0
BITMAP
00
ENDCHAR
STARTCHAR exclam
ENCODING 33
SWIDTH 265 0
DWIDTH 6 0
BBX 7 18 1 0
BITMAP
1e
1e
1c
1c
1c
1c
18
38
38
38
30
30
30
00
00
f0
f0
f0
ENDCHAR
STARTCHAR quotedbl
ENCODING 34
SWIDTH 451 0
DWIDTH 11 0
BBX 9 7 4 11
BITMAP
f780
e380
e380
6300
6300
6300
4100
ENDCHAR
STARTCHAR numbersign
ENCODING 35
SWIDTH 636 0
DWIDTH 16 0
BBX 16 18 2 0
BITMAP
0063
00c2
00c6
0084
018c
0108
7fff
0210
0630
0420
0c60
0860
fffe
1080
3180
6100
6300
c600
ENDCHAR
STARTCHAR dollar
ENCODING 36
SWIDTH 636 0
DWIDTH 16 0
BBX 14 23 3 -3
BITMAP
0040
0040
07fc
0e9c
1c8c
1c88
1c80
1d80
1f00
0f00
07c0
03e0
03f0
02f0
0270
0270
4670
c4e0
e5c0
ff80
0400
0c00
0c00
ENDCHAR
STARTCHAR percent
ENCODING 37
SWIDTH 772 0
DWIDTH 19 0
BBX 20 18 1 0
BITMAP
0f0070
3980e0
71c1c0
71c380
61c700
e18e00
639c00
673800
3e7000
00e3c0
01ce60
038c70
071c70
0e1c70
0c1870
1818e0
301cc0
e00f80
ENDCHAR
STARTCHAR ampersand
ENCODING 38
SWIDTH 773 0
DWIDTH 19 0
BBX 20 18 1 0
BITMAP
007c00
01ce00
038700
038700
038e00
038e00
03f800
03e000
1dc3f0
39e1c0
71e1c0
f0f180
f0f180
f07b00
f03e00
703e00
783f00
1fcfc0
ENDCHAR
STARTCHAR apostrophe
ENCODING 39
SWIDTH 265 0
DWIDTH 7 0
BBX 6 7 3 11
BITMAP
3c
7c
78
38
38
30
e0
ENDCHAR
STARTCHAR parenleft
ENCODING 40
SWIDTH 336 0
DWIDTH 8 0
BBX 9 23 2 -5
BITMAP
0080
0100
0600
0e00
0c00
1c00
3800
3800
7000
7000
f000
f000
e000
e000
e000
e000
e000
e000
6000
7000
3000
1000
1800
ENDCHAR
STARTCHAR parenright
ENCODING 41
SWIDTH 336 0
DWIDTH 8 0
BBX 9 23 0 -5
BITMAP
0400
0400
0600
0300
0300
0380
0380
0380
0380
0380
0380
0780
0780
0700
0700
0e00
0e00
1c00
1800
3800
3000
4000
8000
ENDCHAR
STARTCHAR asterisk
ENCODING 42
SWIDTH 434 0
DWIDTH 11 0
BBX 10 9 3 9
BITMAP
0e00
0600
44c0
f7c0
7380
1400
3600
e700
2200
ENDCHAR
STARTCHAR plus
ENCODING 43
SWIDTH 636 0
DWIDTH 16 0
BBX 15 15 2 0
BITMAP
00c0
00c0
0080
0180
0180
0180
0180
fffe
0300
0300
0300
0300
0200
0600
0600
ENDCHAR
STARTCHAR comma
ENCODING 44
SWIDTH 265 0
DWIDTH 7 0
BBX 6 9 0 -5
BITMAP
3c
7c
78
78
38
38
30
f0
c0
ENDCHAR
STARTCHAR minus
ENCODING 45
SWIDTH 636 0
DWIDTH 16 0
BBX 15 1 2 7
BITMAP
fffe
ENDCHAR
STARTCHAR period
ENCODING 46
SWIDTH 265 0
DWIDTH 7 0
BBX 5 4 1 0
BITMAP
78
78
f0
f0
ENDCHAR
STARTCHAR slash
ENCODING 47
SWIDTH 515 0
DWIDTH 13 0
BBX 17 22 0 -4
BITMAP
000180
000300
000200
000400
000c00
000800
001000
003000
002000
004000
008000
008000
010000
020000
020000
040000
080000
080000
100000
200000
600000
c00000
ENDCHAR
STARTCHAR zero
ENCODING 48
SWIDTH 623 0
DWIDTH 16 0
BBX 15 18 2 0
BITMAP
01f0
0638
0c1c
1c1c
381c
381e
781e
701e
f01c
f01c
f03c
f03c
f038
f078
f070
70e0
39c0
1f00
ENDCHAR
STARTCHAR one
ENCODING 49
SWIDTH 636 0
DWIDTH 16 0
BBX 10 18 3 0
BITMAP
1fc0
03c0
03c0
0380
0380
0780
0780
0780
0700
0700
0f00
0f00
0f00
0e00
0e00
1e00
1e00
ffc0
ENDCHAR
STARTCHAR two
ENCODING 50
SWIDTH 636 0
DWIDTH 16 0
BBX 15 18 2 0
BITMAP
03f0
0c3c
181e
181e
001e
001e
003c
0038
0060
0180
0200
0400
1800
3000
7000
7ff8
fff0
fff0
ENDCHAR
STARTCHAR three
ENCODING 51
SWIDTH 636 0
DWIDTH 16 0
BBX 14 18 3 0
BITMAP
0ff0
0c78
083c
183c
003c
0038
0070
00e0
1fc0
01e0
0070
0078
0078
0078
4070
c0f0
e1c0
7f00
ENDCHAR
STARTCHAR four
ENCODING 52
SWIDTH 636 0
DWIDTH 16 0
BBX 14 18 2 0
BITMAP
001c
0038
0078
00b8
0138
0238
0470
0870
1070
2070
7ffc
fffc
fffc
00e0
00e0
00e0
01e0
07f8
ENDCHAR
STARTCHAR five
ENCODING 53
SWIDTH 636 0
DWIDTH 16 0
BBX 15 18 3 0
BITMAP
0ffe
0ffc
0ffc
1800
1800
1000
1000
3f00
03c0
00f0
00f0
0070
0078
0070
40f0
c0e0
e1c0
fe00
ENDCHAR
STARTCHAR six
ENCODING 54
SWIDTH 636 0
DWIDTH 16 0
BBX 15 18 3 0
BITMAP
01fc
070e
0e04
1c04
3c0c
3800
7800
73e0
fc78
f838
f038
f038
f038
f038
7070
7070
38e0
1f80
ENDCHAR
STARTCHAR seven
ENCODING 55
SWIDTH 636 0
DWIDTH 16 0
BBX 14 18 4 0
BITMAP
3ffc
7ffc
7ff8
0018
0030
0060
00c0
0180
0300
0700
0e00
1c00
3c00
3800
7800
7000
f000
f000
ENDCHAR
STARTCHAR eight
ENCODING 56
SWIDTH 636 0
DWIDTH 16 0
BBX 15 18 2 0
BITMAP
01f8
071c
0e1e
1c1e
1c1e
1e1c
1f38
0fe0
07e0
19f8
38f8
707c
f03c
f03c
f038
f030
7860
1f80
ENDCHAR
STARTCHAR nine
ENCODING 57
SWIDTH 636 0
DWIDTH 16 0
BBX 15 18 2 0
BITMAP
03e0
0e38
1c1c
3c1c
381e
781e
781e
781e
383e
3c7c
0fbc
003c
0038
4078
c070
c0e0
e180
7e00
ENDCHAR
STARTCHAR colon
ENCODING 58
SWIDTH 265 0
DWIDTH 6 0
BBX 6 13 1 0
BITMAP
3c
3c
3c
38
00
00
00
00
00
70
f0
f0
f0
ENDCHAR
STARTCHAR semicolon
ENCODING 59
SWIDTH 265 0
DWIDTH 6 0
BBX 7 18 1 -5
BITMAP
1e
1e
1e
1c
00
00
00
00
00
00
00
78
78
38
30
30
70
c0
ENDCHAR
STARTCHAR less
ENCODING 60
SWIDTH 636 0
DWIDTH 16 0
BBX 16 15 2 0
BITMAP
0001
0007
001e
0070
01c0
0700
3c00
f000
3c00
0f00
0780
01e0
0078
001c
0008
ENDCHAR
STARTCHAR equal
ENCODING 61
SWIDTH 636 0
DWIDTH 16 0
BBX 16 6 1 4
BITMAP
7fff
0000
0000
0000
0000
fffe
ENDCHAR
STARTCHAR greater
ENCODING 62
SWIDTH 636 0
DWIDTH 16 0
BBX 16 15 1 0
BITMAP
1000
1800
1e00
0780
01e0
00f0
003c
000f
003c
00e0
0380
0e00
3800
e000
8000
ENDCHAR
STARTCHAR question
ENCODING 63
SWIDTH 493 0
DWIDTH 12 0
BBX 11 18 3 0
BITMAP
3f80
63c0
41e0
c1e0
01e0
01c0
0180
0300
0600
1c00
3800
3800
7800
0000
0000
f000
f000
f000
ENDCHAR
STARTCHAR at
ENCODING 64
SWIDTH 861 0
DWIDTH 22 0
BBX 19 18 3 0
BITMAP
00fe00
030380
0c00c0
180040
30f020
211c20
430c20
460c20
861c20
8c3820
8c3860
8c7840
8ed880
471f00
400000
200000
183000
07e000
ENDCHAR
STARTCHAR A
ENCODING 65
SWIDTH 765 0
DWIDTH 19 0
BBX 19 18 0 0
BITMAP
000c00
001c00
001c00
003e00
007e00
005e00
00ce00
018e00
010f00
030f00
020f00
060700
0fff80
080780
180780
100380
3003c0
f80fe0
ENDCHAR
STARTCHAR B
ENCODING 66
SWIDTH 651 0
DWIDTH 16 0
BBX 16 18 1 0
BITMAP
1ffc
070f
070f
070f
070f
0f0e
0e1e
0e3c
0ff0
0e38
1e1c
1c1e
1c1e
1c1e
1c1e
3c3c
3c78
fff0
ENDCHAR
STARTCHAR C
ENCODING 67
SWIDTH 740 0
DWIDTH 18 0
BBX 17 18 3 0
BITMAP
00ff00
038780
0e0180
1e0100
1c0300
380000
780000
780000
f00000
f00000
f00000
f00000
f00000
f00000
780000
780000
3e0c00
0ff000
ENDCHAR
STARTCHAR D
ENCODING 68
SWIDTH 822 0
DWIDTH 21 0
BBX 20 18 1 0
BITMAP
1fff00
0787c0
0781e0
0700e0
0700f0
0f00f0
0f00f0
0f00f0
0e00f0
0e00f0
1e00e0
1e01e0
1e01c0
1e03c0
1c0380
3c0700
3c1e00
fff800
ENDCHAR
STARTCHAR E
ENCODING 69
SWIDTH 630 0
DWIDTH 16 0
BBX 17 18 1 0
BITMAP
1fff80
078180
078100
078000
078000
0f0000
0f0000
0f0c00
0ff800
0e0800
1e0000
1e0000
1e0000
1e0000
1c0000
3c0600
3c0c00
fffc00
ENDCHAR
STARTCHAR F
ENCODING 70
SWIDTH 602 0
DWIDTH 15 0
BBX 17 18 1 0
BITMAP
1fff80
078180
078300
078000
070000
070000
0f0000
0f0c00
0ff800
0e0800
0e0000
1e0000
1e0000
1e0000
1c0000
3c0000
3c0000
ff0000
ENDCHAR
STARTCHAR G
ENCODING 71
SWIDTH 780 0
DWIDTH 19 0
BBX 17 18 3 0
BITMAP
00ff80
038380
0f0180
1e0300
1c0000
380000
780000
780000
f00000
f00000
f03f80
f01e00
f01e00
f01c00
781c00
781c00
3c3c00
0ff000
ENDCHAR
STARTCHAR H
ENCODING 72
SWIDTH 827 0
DWIDTH 21 0
BBX 23 18 1 0
BITMAP
1ff1fe
07c078
078078
0780f0
0780f0
0700f0
0f00f0
0f00e0
0fffe0
0f01e0
0e01e0
1e01e0
1e01c0
1e03c0
1e03c0
3c03c0
3c07c0
ff1ff0
ENDCHAR
STARTCHAR I
ENCODING 73
SWIDTH 372 0
DWIDTH 9 0
BBX 11 18 1 0
BITMAP
1fe0
0780
0780
0700
0f00
0f00
0f00
0f00
0e00
0e00
1e00
1e00
1e00
1c00
1c00
3c00
3c00
ff00
ENDCHAR
STARTCHAR J
ENCODING 74
SWIDTH 478 0
DWIDTH 12 0
BBX 15 22 0 -4
BITMAP
01fe
0078
0078
0070
00f0
00f0
00f0
00f0
00e0
00e0
01e0
01e0
01e0
01e0
01c0
03c0
03c0
03c0
6380
c700
c600
fc00
ENDCHAR
STARTCHAR K
ENCODING 75
SWIDTH 746 0
DWIDTH 19 0
BBX 19 18 1 0
BITMAP
1fe3e0
078180
070300
070600
070c00
0f1000
0f6000
0ec000
0fe000
0fe000
1ef000
1ef800
1c7c00
1c3c00
1c3e00
3c1f00
3c0f00
fe3fc0
ENDCHAR
STARTCHAR L
ENCODING 76
SWIDTH 611 0
DWIDTH 15 0
BBX 15 18 1 0
BITMAP
1ff0
07c0
0780
0780
0780
0700
0f00
0f00
0f00
0f00
0e00
1e00
1e00
1e00
1e06
3c06
3c0c
fffc
ENDCHAR
STARTCHAR M
ENCODING 77
SWIDTH 926 0
DWIDTH 23 0
BBX 25 18 1 0
BITMAP
1f801f80
07801e00
07803e00
07c07c00
05c05c00
0dc0bc00
0dc1bc00
0ce13c00
0ce33800
08e23800
18e43800
187c7800
18787800
18707000
10707000
3020f000
3000f000
fc03fc00
ENDCHAR
STARTCHAR N
ENCODING 78
SWIDTH 797 0
DWIDTH 20 0
BBX 22 18 1 0
BITMAP
1f80fc
078030
07c030
07c060
07e060
0de060
0cf060
0cf060
0c78c0
0c78c0
183cc0
181cc0
181e80
180f80
180f80
300780
300780
fc0300
ENDCHAR
STARTCHAR O
ENCODING 79
SWIDTH 831 0
DWIDTH 21 0
BBX 19 18 3 0
BITMAP
00fe00
038780
0703c0
1e01c0
1c01e0
3801e0
7801e0
7801e0
f001e0
f001e0
f003c0
f003c0
f00380
f00700
700e00
781c00
3c3800
0fc000
ENDCHAR
STARTCHAR P
ENCODING 80
SWIDTH 628 0
DWIDTH 16 0
BBX 17 18 1 0
BITMAP
1ffe00
078f00
078780
078780
070780
0f0780
0f0700
0f0f00
0f0e00
0e3c00
1ff000
1e0000
1e0000
1e0000
1c0000
3c0000
3c0000
ff0000
ENDCHAR
STARTCHAR Q
ENCODING 81
SWIDTH 835 0
DWIDTH 21 0
BBX 21 23 3 -5
BITMAP
00fe00
038700
070380
1e01c0
1c01e0
3801e0
7801e0
7801e0
f001e0
f001e0
f003e0
f003c0
f003c0
f00780
700f80
781f00
3c3e00
0ffc00
007800
002000
001000
000e00
0001f8
ENDCHAR
STARTCHAR R
ENCODING 82
SWIDTH 711 0
DWIDTH 18 0
BBX 17 18 1 0
BITMAP
1ffe00
078f80
078780
070780
070780
0f0780
0f0700
0f0e00
0f1c00
0ff800
1e7800
1e7800
1e3c00
1c3c00
1c1e00
3c1e00
3c0f00
fe0f80
ENDCHAR
STARTCHAR S
ENCODING 83
SWIDTH 587 0
DWIDTH 15 0
BBX 15 18 2 0
BITMAP
01fc
070e
0e06
1c0c
1c00
1e00
1f00
1f80
0fe0
03f0
01f8
00f8
0078
0078
6078
c070
e0e0
7f80
ENDCHAR
STARTCHAR T
ENCODING 84
SWIDTH 716 0
DWIDTH 18 0
BBX 18 18 3 0
BITMAP
7fffc0
e1e0c0
c1e080
c1e180
03c000
03c000
03c000
03c000
03c000
038000
078000
078000
078000
078000
070000
0f0000
0f0000
7fc000
ENDCHAR
STARTCHAR U
ENCODING 85
SWIDTH 775 0
DWIDTH 19 0
BBX 19 18 4 0
BITMAP
ff07e0
3c0380
3c0300
380300
380200
780200
780200
780200
700600
f00400
f00400
f00400
f00400
f00800
f00800
701000
382000
1fc000
ENDCHAR
STARTCHAR V
ENCODING 86
SWIDTH 741 0
DWIDTH 19 0
BBX 19 18 3 0
BITMAP
fe03e0
7c0080
3c0180
3c0100
3c0200
3c0600
1e0400
1e0800
1e0800
1e1000
1e3000
0f2000
0f4000
0fc000
0f8000
070000
070000
060000
ENDCHAR
STARTCHAR W
ENCODING 87
SWIDTH 922 0
DWIDTH 23 0
BBX 23 18 3 0
BITMAP
fc183e
78180c
783818
783810
387830
387c20
38fc60
38bc40
399cc0
391c80
3b1d80
3a1d00
3e1f00
3c1e00
3c1e00
381c00
381c00
301800
ENDCHAR
STARTCHAR X
ENCODING 88
SWIDTH 672 0
DWIDTH 17 0
BBX 20 18 0 0
BITMAP
0fe1f0
07c0c0
03c180
03c100
01e200
01e600
00ec00
00f800
00f000
00f800
01f800
033c00
023c00
041c00
081e00
181e00
300f00
f83f80
ENDCHAR
STARTCHAR Y
ENCODING 89
SWIDTH 669 0
DWIDTH 17 0
BBX 17 18 3 0
BITMAP
fe0f80
7c0600
3c0400
3c0c00
1c1800
1e3000
1e2000
0f6000
0fc000
078000
070000
0f0000
0f0000
0f0000
0f0000
0e0000
1e0000
7f8000
ENDCHAR
STARTCHAR Z
ENCODING 90
SWIDTH 684 0
DWIDTH 17 0
BBX 17 18 2 0
BITMAP
0fff80
0c0f00
081f00
001e00
003c00
007800
00f800
01f000
01e000
03c000
078000
0f8000
0f0000
1e0000
3c0000
7c0c00
f80c00
fffc00
ENDCHAR
STARTCHAR bracketleft
ENCODING 91
SWIDTH 336 0
DWIDTH 8 0
BBX 10 22 1 -4
BITMAP
0fc0
0e00
0e00
0e00
0e00
1c00
1c00
1c00
1c00
1c00
3800
3800
3800
3800
3800
7000
7000
7000
7000
7000
e000
fc00
ENDCHAR
STARTCHAR backslash
ENCODING 92
SWIDTH 515 0
DWIDTH 13 0
BBX 8 22 4 -4
BITMAP
c0
40
40
40
20
20
20
10
10
10
10
08
08
08
08
04
04
04
02
02
02
03
ENDCHAR
STARTCHAR bracketright
ENCODING 93
SWIDTH 336 0
DWIDTH 8 0
BBX 10 22 0 -4
BITMAP
0fc0
01c0
0380
0380
0380
0380
0380
0700
0700
0700
0700
0700
0e00
0e00
0e00
0e00
0e00
1c00
1c00
1c00
1c00
fc00
ENDCHAR
STARTCHAR asciicircum
ENCODING 94
SWIDTH 636 0
DWIDTH 16 0
BBX 14 15 2 3
BITMAP
0040
0040
00e0
01e0
01e0
0360
0230
0630
0c30
0c30
1818
3018
3018
600c
c00c
ENDCHAR
STARTCHAR underscore
ENCODING 95
SWIDTH 500 0
DWIDTH 12 0
BBX 11 1 1 -3
BITMAP
ffe0
ENDCHAR
STARTCHAR grave
ENCODING 96
SWIDTH 599 0
DWIDTH 15 0
BBX 5 4 8 14
BITMAP
e0
70
30
18
ENDCHAR
STARTCHAR a
ENCODING 97
SWIDTH 634 0
DWIDTH 16 0
BBX 15 13 2 0
BITMAP
01fe
063e
0c1c
181c
383c
703c
707c
f0b8
f1f8
f378
fe78
fc78
787c
ENDCHAR
STARTCHAR b
ENCODING 98
SWIDTH 633 0
DWIDTH 16 0
BBX 15 18 2 0
BITMAP
3f00
1e00
1e00
1e00
1e00
1c3c
1c7e
3cfe
3d9e
3f1e
3a1e
7c1c
781c
7838
7030
7060
f8c0
ff00
ENDCHAR
STARTCHAR c
ENCODING 99
SWIDTH 524 0
DWIDTH 13 0
BBX 13 13 2 0
BITMAP
03f0
0e38
1c30
3830
7800
7000
f000
f000
f000
f000
f000
7820
3fc0
ENDCHAR
STARTCHAR d
ENCODING 100
SWIDTH 634 0
DWIDTH 16 0
BBX 16 18 2 0
BITMAP
003f
000f
000e
000e
001e
01fe
063e
0c1c
183c
383c
703c
7078
f0b8
f1f8
f378
fe78
fc78
78fc
ENDCHAR
STARTCHAR e
ENCODING 101
SWIDTH 548 0
DWIDTH 14 0
BBX 12 13 2 0
BITMAP
03e0
0cf0
1870
3870
7070
70e0
f3c0
ff00
f000
f000
f010
7870
3f80
ENDCHAR
STARTCHAR f
ENCODING 102
SWIDTH 415 0
DWIDTH 10 0
BBX 14 25 1 -5
BITMAP
00fc
018c
030c
0708
0708
0f00
0f00
3fe0
1e00
1e00
1e00
1c00
1c00
3c00
3c00
3c00
3800
3800
7800
7800
7800
7000
7000
f000
f000
ENDCHAR
STARTCHAR g
ENCODING 103
SWIDTH 628 0
DWIDTH 16 0
BBX 15 18 1 -5
BITMAP
01fe
061e
0c1e
1c1c
181c
383c
787c
787c
78b8
79b8
7f78
7e78
3870
0070
80f0
c0e0
71c0
7f00
ENDCHAR
STARTCHAR h
ENCODING 104
SWIDTH 656 0
DWIDTH 16 0
BBX 14 18 2 0
BITMAP
3e00
1e00
1e00
1e00
1c00
1c38
3cfc
3dfc
3dbc
3a3c
3e38
7c38
7878
7878
7078
7070
f070
f0fc
ENDCHAR
STARTCHAR i
ENCODING 105
SWIDTH 319 0
DWIDTH 8 0
BBX 7 18 2 0
BITMAP
1e
1e
1c
00
00
fc
3c
3c
38
38
78
78
78
70
70
f0
f0
fc
ENDCHAR
STARTCHAR j
ENCODING 106
SWIDTH 381 0
DWIDTH 10 0
BBX 14 23 -1 -5
BITMAP
003c
003c
0038
0000
0000
01f8
0070
0070
00f0
00f0
00f0
00e0
00e0
01e0
01e0
01e0
01c0
03c0
03c0
4380
c300
c600
fc00
ENDCHAR
STARTCHAR k
ENCODING 107
SWIDTH 626 0
DWIDTH 16 0
BBX 14 18 2 0
BITMAP
3f00
1e00
1e00
1e00
1e00
1c3c
3c3c
3c38
3c70
39e0
3f80
7b80
7bc0
7bc0
71e0
70f0
f0f8
f07c
ENDCHAR
STARTCHAR l
ENCODING 108
SWIDTH 319 0
DWIDTH 8 0
BBX 7 18 2 0
BITMAP
3e
1e
1e
1c
1c
3c
3c
3c
38
38
78
78
78
70
70
f0
f0
f8
ENDCHAR
STARTCHAR m
ENCODING 109
SWIDTH 969 0
DWIDTH 24 0
BBX 22 13 2 0
BITMAP
fc3838
3cfcfc
3dfdfc
3b3d3c
3a3a3c
3c3e38
7c3c38
787838
707878
707078
707070
f07070
f0f0fc
ENDCHAR
STARTCHAR n
ENCODING 110
SWIDTH 656 0
DWIDTH 16 0
BBX 14 13 2 0
BITMAP
fc38
3cfc
3cfc
393c
3a3c
3c38
7c38
7878
7878
7078
7070
f070
f0fc
ENDCHAR
STARTCHAR o
ENCODING 111
SWIDTH 599 0
DWIDTH 15 0
BBX 14 13 2 0
BITMAP
03e0
0e38
1c38
383c
783c
703c
f03c
f038
f078
f070
f0e0
79c0
3f00
ENDCHAR
STARTCHAR p
ENCODING 112
SWIDTH 639 0
DWIDTH 16 0
BBX 16 18 1 -5
BITMAP
7e1e
1e3f
1e7f
1ecf
1d0f
1d0f
3e0e
3c0e
3c1c
3818
3830
7c60
7f80
7800
7000
7000
f000
f000
ENDCHAR
STARTCHAR q
ENCODING 113
SWIDTH 630 0
DWIDTH 16 0
BBX 15 18 2 -5
BITMAP
01fe
063e
0c1c
181c
383c
703c
707c
f0b8
f1b8
f378
fe78
fc78
7870
00f0
00f0
00f0
00f0
00e0
ENDCHAR
STARTCHAR r
ENCODING 114
SWIDTH 496 0
DWIDTH 12 0
BBX 13 13 2 0
BITMAP
7c38
3c70
3cf0
3d80
3e00
3e00
7c00
7800
7800
7000
7000
f000
f000
ENDCHAR
STARTCHAR s
ENCODING 115
SWIDTH 479 0
DWIDTH 12 0
BBX 12 13 1 0
BITMAP
07e0
1c70
1c20
3c60
1e00
1f00
0f80
07c0
03c0
41c0
c1c0
e380
7f00
ENDCHAR
STARTCHAR t
ENCODING 116
SWIDTH 375 0
DWIDTH 9 0
BBX 9 17 2 0
BITMAP
0c00
1c00
3c00
3c00
ff80
3c00
3800
3800
7800
7800
7800
7000
f000
f000
f000
7200
3c00
ENDCHAR
STARTCHAR u
ENCODING 117
SWIDTH 655 0
DWIDTH 16 0
BBX 14 13 3 0
BITMAP
fcfc
383c
3838
7838
7878
7878
70f8
70f0
f170
f370
fef0
fcf0
70fc
ENDCHAR
STARTCHAR v
ENCODING 118
SWIDTH 584 0
DWIDTH 15 0
BBX 15 13 2 0
BITMAP
f83e
780e
3c0e
3c0c
1c18
1e30
1e30
1e60
0ec0
0f80
0f00
0e00
0c00
ENDCHAR
STARTCHAR w
ENCODING 119
SWIDTH 822 0
DWIDTH 21 0
BBX 20 13 2 0
BITMAP
f820f0
783070
387060
3c7060
3c78c0
1cb880
1cb900
1d3b00
1f3a00
1e1c00
1c1c00
181800
181000
ENDCHAR
STARTCHAR x
ENCODING 120
SWIDTH 534 0
DWIDTH 13 0
BBX 13 13 1 0
BITMAP
3c38
1e38
1e38
0f30
0f60
0780
0780
0f80
1bc0
31c0
61e0
e1e0
e0f0
ENDCHAR
STARTCHAR y
ENCODING 121
SWIDTH 586 0
DWIDTH 15 0
BBX 17 18 0 -5
BITMAP
3f0780
0f0380
0f0380
078300
078600
078600
038c00
039800
03b000
03e000
03c000
01c000
018000
030000
060000
0c0000
180000
f80000
ENDCHAR
STARTCHAR z
ENCODING 122
SWIDTH 567 0
DWIDTH 14 0
BBX 14 13 1 0
BITMAP
1ffc
1878
3078
00f0
01e0
03c0
0780
0f00
1e00
3c00
7c18
7830
fff0
ENDCHAR
STARTCHAR braceleft
ENCODING 123
SWIDTH 361 0
DWIDTH 9 0
BBX 9 22 2 -4
BITMAP
0780
0e00
0e00
1e00
1e00
1e00
1e00
1c00
1c00
1800
3000
e000
3800
3800
3800
7800
7000
f000
f000
e000
f000
3800
ENDCHAR
STARTCHAR bar
ENCODING 124
SWIDTH 253 0
DWIDTH 6 0
BBX 6 22 2 -4
BITMAP
0c
0c
0c
18
18
18
18
18
30
30
30
30
30
30
60
60
60
60
60
c0
c0
c0
ENDCHAR
STARTCHAR braceright
ENCODING 125
SWIDTH 361 0
DWIDTH 9 0
BBX 9 22 1 -4
BITMAP
0e00
0700
0380
0380
0780
0700
0f00
0e00
0e00
0600
0200
0780
0e00
1c00
1c00
3c00
3c00
3c00
3c00
3c00
3800
f000
ENDCHAR
STARTCHAR asciitilde
ENCODING 126
SWIDTH 636 0
DWIDTH 16 0
BBX 15 6 2 4
BITMAP
1c02
2702
4304
4184
81c8
8070
ENDCHAR
STARTCHAR nobreakspace
ENCODING 160
SWIDTH 333 0
DWIDTH 8 0
BBX 1 1 0 0
BITMAP
00
ENDCHAR
STARTCHAR Aogonek
ENCODING 161
SWIDTH 765 0
DWIDTH 19 0
BBX 19 22 0 -4
BITMAP
000c00
001c00
001c00
003e00
007e00
005e00
00ce00
018e00
010f00
030f00
020f00
060700
0fff80
080780
180780
100380
3003c0
f80fe0
006000
00c000
00d000
007000
ENDCHAR
STARTCHAR breve
ENCODING 162
SWIDTH 599 0
DWIDTH 15 0
BBX 9 4 7 14
BITMAP
8180
e300
7e00
3c00
ENDCHAR
STARTCHAR Lstroke
ENCODING 163
SWIDTH 611 0
DWIDTH 15 0
BBX 15 18 1 0
BITMAP
1ff0
07c0
0780
0780
0780
0700
0f20
0fe0
1f00
7f00
4e00
1e00
1e00
1e00
1e06
1c06
3c0e
fffc
ENDCHAR
STARTCHAR currency
ENCODING 164
SWIDTH 636 0
DWIDTH 16 0
BBX 18 16 1 1
BITMAP
100040
080080
0c0100
07f200
031c00
060c00
0c0400
0c0600
0c0c00
0c0c00
0c1800
0e3800
1ff800
300c00
400600
800200
ENDCHAR
STARTCHAR Lcaron
ENCODING 165
SWIDTH 760 0
DWIDTH 19 0
BBX 19 20 1 0
BITMAP
0001e0
0003e0
1ff3c0
07c1c0
0781c0
078180
078700
070000
0f0000
0f0000
0f0000
0f0000
0e0000
1e0000
1e0000
1e0000
1e0600
3c0600
3c0c00
fffc00
ENDCHAR
STARTCHAR Sacute
ENCODING 166
SWIDTH 587 0
DWIDTH 15 0
BBX 16 23 2 0
BITMAP
000f
001c
0038
0060
0000
01fc
070e
0e06
1c0c
1c00
1e00
1f00
1f80
0fe0
03f0
01f8
00f8
0078
0078
6078
c070
e0e0
7f80
ENDCHAR
STARTCHAR section
ENCODING 167
SWIDTH 636 0
DWIDTH 16 0
BBX 14 23 2 -5
BITMAP
03fc
071c
0e0c
1c08
1c00
1e00
1f80
0fe0
0ff0
19f0
3878
3838
3830
3e20
1fe0
0fe0
03e0
00f0
00f0
40e0
c0e0
e1c0
7f00
ENDCHAR
STARTCHAR diaeresis
ENCODING 168
SWIDTH 599 0
DWIDTH 15 0
BBX 8 3 7 15
BITMAP
e7
e7
e7
ENDCHAR
STARTCHAR Scaron
ENCODING 169
SWIDTH 587 0
DWIDTH 15 0
BBX 15 23 2 0
BITMAP
030c
0198
01f0
00e0
0000
01fc
070e
0e06
1c0c
1c00
1e00
1f00
1f80
0fe0
03f0
01f8
00f8
0078
0078
6078
c070
e0e0
7f80
ENDCHAR
STARTCHAR Scedilla
ENCODING 170
SWIDTH 587 0
DWIDTH 15 0
BBX 15 23 2 -5
BITMAP
01fc
070e
0e06
1c0c
1c00
1e00
1f00
1f80
0fe0
03f0
01f8
00f8
0078
0078
6078
c070
e0e0
7f80
0180
0300
00c0
00c0
0780
ENDCHAR
STARTCHAR Tcaron
ENCODING 171
SWIDTH 716 0
DWIDTH 18 0
BBX 18 23 3 0
BITMAP
030c00
019800
01f000
00e000
000000
7fffc0
e1e0c0
c1e080
c1e180
03c000
03c000
03c000
03c000
03c000
038000
078000
078000
078000
078000
070000
0f0000
0f0000
7fc000
ENDCHAR
STARTCHAR Zacute
ENCODING 172
SWIDTH 684 0
DWIDTH 17 0
BBX 17 23 2 0
BITMAP
000780
000e00
001c00
003000
000000
0fff80
0c0f00
081f00
001e00
003c00
007800
00f800
01f000
01e000
03c000
078000
0f8000
0f0000
1e0000
3c0000
7c0c00
f80c00
fffc00
ENDCHAR
STARTCHAR hyphen
ENCODING 173
SWIDTH 289 0
DWIDTH 7 0
BBX 6 1 2 8
BITMAP
fc
ENDCHAR
STARTCHAR Zcaron
ENCODING 174
SWIDTH 684 0
DWIDTH 17 0
BBX 17 23 2 0
BITMAP
018600
00cc00
00f800
007000
000000
0fff80
0c0f00
081f00
001e00
003c00
007800
00f800
01f000
01e000
03c000
078000
0f8000
0f0000
1e0000
3c0000
7c0c00
f80c00
fffc00
ENDCHAR
STARTCHAR Zabovedot
ENCODING 175
SWIDTH 684 0
DWIDTH 17 0
BBX 17 22 2 0
BITMAP
003800
007800
007000
000000
0fff80
0c0f00
081f00
001e00
003c00
007800
00f800
01f000
01e000
03c000
078000
0f8000
0f0000
1e0000
3c0000
7c0c00
f80c00
fffc00
ENDCHAR
STARTCHAR degree
ENCODING 176
SWIDTH 259 0
DWIDTH 6 0
BBX 4 4 5 14
BITMAP
60
90
90
60
ENDCHAR
STARTCHAR aogonek
ENCODING 177
SWIDTH 634 0
DWIDTH 16 0
BBX 15 17 2 -4
BITMAP
01fe
063e
0c1c
181c
383c
703c
707c
f0b8
f1f8
f378
fe78
fc78
787c
0180
0300
0340
01c0
ENDCHAR
STARTCHAR ogonek
ENCODING 178
SWIDTH 599 0
DWIDTH 15 0
BBX 4 4 5 -4
BITMAP
60
c0
d0
70
ENDCHAR
STARTCHAR lstroke
ENCODING 179
SWIDTH 319 0
DWIDTH 8 0
BBX 9 18 1 0
BITMAP
3f00
0f00
0e00
0e00
0e00
1e00
1e00
1d80
1f00
7c00
bc00
3c00
3800
3800
3800
7800
7800
7c00
ENDCHAR
STARTCHAR acute
ENCODING 180
SWIDTH 599 0
DWIDTH 15 0
BBX 7 4 9 14
BITMAP
1e
38
70
c0
ENDCHAR
STARTCHAR lcaron
ENCODING 181
SWIDTH 600 0
DWIDTH 15 0
BBX 14 20 2 0
BITMAP
003c
007c
3e78
1e38
1e38
1c30
1ce0
3c00
3c00
3c00
3800
3800
7800
7800
7800
7000
7000
f000
f000
f800
ENDCHAR
STARTCHAR sacute
ENCODING 182
SWIDTH 479 0
DWIDTH 12 0
BBX 14 18 1 0
BITMAP
003c
0070
00e0
0180
0000
07e0
1c70
1c20
3c60
1e00
1f00
0f80
07c0
03c0
41c0
c1c0
e380
7f00
ENDCHAR
STARTCHAR caron
ENCODING 183
SWIDTH 599 0
DWIDTH 15 0
BBX 8 4 8 14
BITMAP
c3
66
7c
38
ENDCHAR
STARTCHAR cedilla
ENCODING 184
SWIDTH 599 0
DWIDTH 15 0
BBX 5 5 4 -5
BITMAP
30
60
18
18
f0
ENDCHAR
STARTCHAR scaron
ENCODING 185
SWIDTH 479 0
DWIDTH 12 0
BBX 12 18 1 0
BITMAP
0c30
0660
07c0
0380
0000
07e0
1c70
1c20
3c60
1e00
1f00
0f80
07c0
03c0
41c0
c1c0
e380
7f00
ENDCHAR
STARTCHAR scedilla
ENCODING 186
SWIDTH 479 0
DWIDTH 12 0
BBX 12 18 1 -5
BITMAP
07e0
1c70
1c20
3c60
1e00
1f00
0f80
07c0
03c0
41c0
c1c0
e380
7f00
0600
0c00
0300
0300
1e00
ENDCHAR
STARTCHAR tcaron
ENCODING 187
SWIDTH 520 0
DWIDTH 13 0
BBX 13 21 2 0
BITMAP
0078
00f8
00f0
0070
0c70
1c60
3dc0
3c00
ff80
3c00
3800
3800
7800
7800
7800
7000
f000
f000
f000
7200
3c00
ENDCHAR
STARTCHAR zacute
ENCODING 188
SWIDTH 567 0
DWIDTH 14 0
BBX 15 18 1 0
BITMAP
001e
0038
0070
00c0
0000
1ffc
1878
3078
00f0
01e0
03c0
0780
0f00
1e00
3c00
7c18
7830
fff0
ENDCHAR
STARTCHAR doubleacute
ENCODING 189
SWIDTH 599 0
DWIDTH 15 0
BBX 9 4 8 14
BITMAP
1f80
3600
6400
d800
ENDCHAR
STARTCHAR zcaron
ENCODING 190
SWIDTH 567 0
DWIDTH 14 0
BBX 14 18 1 0
BITMAP
0618
0330
03e0
01c0
0000
1ffc
1878
3078
00f0
01e0
03c0
0780
0f00
1e00
3c00
7c18
7830
fff0
ENDCHAR
STARTCHAR zabovedot
ENCODING 191
SWIDTH 567 0
DWIDTH 14 0
BBX 14 17 1 0
BITMAP
00e0
01e0
01c0
0000
1ffc
1878
3078
00f0
01e0
03c0
0780
0f00
1e00
3c00
7c18
7830
fff0
ENDCHAR
STARTCHAR Racute
ENCODING 192
SWIDTH 711 0
DWIDTH 18 0
BBX 17 23 1 0
BITMAP
000780
000e00
001c00
003000
000000
1ffe00
078f80
078780
070780
070780
0f0780
0f0700
0f0e00
0f1c00
0ff800
1e7800
1e7800
1e3c00
1c3c00
1c1e00
3c1e00
3c0f00
fe0f80
ENDCHAR
STARTCHAR Aacute
ENCODING 193
SWIDTH 765 0
DWIDTH 19 0
BBX 19 23 0 0
BITMAP
0003c0
000700
000e00
001800
000000
000c00
001c00
001c00
003e00
007e00
005e00
00ce00
018e00
010f00
030f00
020f00
060700
0fff80
080780
180780
100380
3003c0
f80fe0
ENDCHAR
STARTCHAR Acircumflex
ENCODING 194
SWIDTH 765 0
DWIDTH 19 0
BBX 19 23 0 0
BITMAP
000e00
001f00
003b00
006180
000000
000c00
001c00
001c00
003e00
007e00
005e00
00ce00
018e00
010f00
030f00
020f00
060700
0fff80
080780
180780
100380
3003c0
f80fe0
ENDCHAR
STARTCHAR Abreve
ENCODING 195
SWIDTH 765 0
DWIDTH 19 0
BBX 19 23 0 0
BITMAP
0040c0
007180
003f00
001e00
000000
000c00
001c00
001c00
003e00
007e00
005e00
00ce00
018e00
010f00
030f00
020f00
060700
0fff80
080780
180780
100380
3003c0
f80fe0
ENDCHAR
STARTCHAR Adiaeresis
ENCODING 196
SWIDTH 765 0
DWIDTH 19 0
BBX 19 22 0 0
BITMAP
0039c0
0039c0
0039c0
000000
000c00
001c00
001c00
003e00
007e00
005e00
00ce00
018e00
010f00
030f00
020f00
060700
0fff80
080780
180780
100380
3003c0
f80fe0
ENDCHAR
STARTCHAR Lacute
ENCODING 197
SWIDTH 611 0
DWIDTH 15 0
BBX 15 23 1 0
BITMAP
003c
0070
00e0
0180
0000
1ff0
07c0
0780
0780
0780
0700
0f00
0f00
0f00
0f00
0e00
1e00
1e00
1e00
1e06
3c06
3c0c
fffc
ENDCHAR
STARTCHAR Cacute
ENCODING 198
SWIDTH 740 0
DWIDTH 18 0
BBX 17 23 3 0
BITMAP
000780
000e00
001c00
003000
000000
00ff00
038780
0e0180
1e0100
1c0300
380000
780000
780000
f00000
f00000
f00000
f00000
f00000
f00000
780000
780000
3e0c00
0ff000
ENDCHAR
STARTCHAR Ccedilla
ENCODING 199
SWIDTH 740 0
DWIDTH 18 0
BBX 17 23 3 -5
BITMAP
00ff00
038780
0e0180
1e0100
1c0300
380000
780000
780000
f00000
f00000
f00000
f00000
f00000
f00000
780000
780000
3e0c00
0ff000
060000
0c0000
030000
030000
1e0000
ENDCHAR
STARTCHAR Ccaron
ENCODING 200
SWIDTH 740 0
DWIDTH 18 0
BBX 17 23 3 0
BITMAP
018600
00cc00
00f800
007000
000000
00ff00
038780
0e0180
1e0100
1c0300
380000
780000
780000
f00000
f00000
f00000
f00000
f00000
f00000
780000
780000
3e0c00
0ff000
ENDCHAR
STARTCHAR Eacute
ENCODING 201
SWIDTH 630 0
DWIDTH 16 0
BBX 17 23 1 0
BITMAP
000f00
001c00
003800
006000
000000
1fff80
078180
078100
078000
078000
0f0000
0f0000
0f0c00
0ff800
0e0800
1e0000
1e0000
1e0000
1e0000
1c0000
3c0600
3c0c00
fffc00
ENDCHAR
STARTCHAR Eogonek
ENCODING 202
SWIDTH 630 0
DWIDTH 16 0
BBX 17 22 1 -4
BITMAP
1fff80
078180
078100
078000
078000
0f0000
0f0000
0f0c00
0ff800
0e0800
1e0000
1e0000
1e0000
1e0000
1c0000
3c0600
3c0c00
fffc00
00c000
018000
01a000
00e000
ENDCHAR
STARTCHAR Ediaeresis
ENCODING 203
SWIDTH 630 0
DWIDTH 16 0
BBX 17 22 1 0
BITMAP
01ce00
01ce00
01ce00
000000
1fff80
078180
078100
078000
078000
0f0000
0f0000
0f0c00
0ff800
0e0800
1e0000
1e0000
1e0000
1e0000
1c0000
3c0600
3c0c00
fffc00
ENDCHAR
STARTCHAR Ecaron
ENCODING 204
SWIDTH 630 0
DWIDTH 16 0
BBX 17 23 1 0
BITMAP
018600
00cc00
00f800
007000
000000
1fff80
078180
078100
078000
078000
0f0000
0f0000
0f0c00
0ff800
0e0800
1e0000
1e0000
1e0000
1e0000
1c0000
3c0600
3c0c00
fffc00
ENDCHAR
STARTCHAR Iacute
ENCODING 205
SWIDTH 372 0
DWIDTH 9 0
BBX 12 23 1 0
BITMAP
00f0
01c0
0380
0600
0000
1fe0
0780
0780
0700
0f00
0f00
0f00
0f00
0e00
0e00
1e00
1e00
1e00
1c00
1c00
3c00
3c00
ff00
ENDCHAR
STARTCHAR Icircumflex
ENCODING 206
SWIDTH 372 0
DWIDTH 9 0
BBX 11 23 1 0
BITMAP
0380
07c0
0ec0
1860
0000
1fe0
0780
0780
0700
0f00
0f00
0f00
0f00
0e00
0e00
1e00
1e00
1e00
1c00
1c00
3c00
3c00
ff00
ENDCHAR
STARTCHAR Dcaron
ENCODING 207
SWIDTH 822 0
DWIDTH 21 0
BBX 20 23 1 0
BITMAP
00c300
006600
007c00
003800
000000
1fff00
0787c0
0781e0
0700e0
0700f0
0f00f0
0f00f0
0f00f0
0e00f0
0e00f0
1e00e0
1e01e0
1e01c0
1e03c0
1c0380
3c0700
3c1e00
fff800
ENDCHAR
STARTCHAR Dstroke
ENCODING 208
SWIDTH 822 0
DWIDTH 21 0
BBX 20 18 1 0
BITMAP
1fff00
0787c0
0781e0
0700e0
0f00f0
0f00f0
0f00f0
0f00f0
7ff0f0
1e00f0
1e00e0
1e01e0
1e01c0
1e03c0
1c0380
3c0700
3c1e00
fff800
ENDCHAR
STARTCHAR Nacute
ENCODING 209
SWIDTH 797 0
DWIDTH 20 0
BBX 22 23 1 0
BITMAP
0001e0
000380
000700
000c00
000000
1f80fc
078030
07c030
07c060
07e060
0de060
0cf060
0cf060
0c78c0
0c78c0
183cc0
181cc0
181e80
180f80
180f80
300780
300780
fc0300
ENDCHAR
STARTCHAR Ncaron
ENCODING 210
SWIDTH 797 0
DWIDTH 20 0
BBX 22 23 1 0
BITMAP
006180
003300
003e00
001c00
000000
1f80fc
078030
07c030
07c060
07e060
0de060
0cf060
0cf060
0c78c0
0c78c0
183cc0
181cc0
181e80
180f80
180f80
300780
300780
fc0300
ENDCHAR
STARTCHAR Oacute
ENCODING 211
SWIDTH 831 0
DWIDTH 21 0
BBX 19 23 3 0
BITMAP
000f00
001c00
003800
006000
000000
00fe00
038780
0703c0
1e01c0
1c01e0
3801e0
7801e0
7801e0
f001e0
f001e0
f003c0
f003c0
f00380
f00700
700e00
781c00
3c3800
0fc000
ENDCHAR
STARTCHAR Ocircumflex
ENCODING 212
SWIDTH 831 0
DWIDTH 21 0
BBX 19 23 3 0
BITMAP
003800
007c00
00ec00
018600
000000
00fe00
038780
0703c0
1e01c0
1c01e0
3801e0
7801e0
7801e0
f001e0
f001e0
f003c0
f003c0
f00380
f00700
700e00
781c00
3c3800
0fc000
ENDCHAR
STARTCHAR Odoubleacute
ENCODING 213
SWIDTH 831 0
DWIDTH 21 0
BBX 19 23 3 0
BITMAP
000fc0
001b00
003200
006c00
000000
00fe00
038780
0703c0
1e01c0
1c01e0
3801e0
7801e0
7801e0
f001e0
f001e0
f003c0
f003c0
f00380
f00700
700e00
781c00
3c3800
0fc000
ENDCHAR
STARTCHAR Odiaeresis
ENCODING 214
SWIDTH 831 0
DWIDTH 21 0
BBX 19 22 3 0
BITMAP
00e700
00e700
00e700
000000
00fe00
038780
0703c0
1e01c0
1c01e0
3801e0
7801e0
7801e0
f001e0
f001e0
f003c0
f003c0
f00380
f00700
700e00
781c00
3c3800
0fc000
ENDCHAR
STARTCHAR multiply
ENCODING 215
SWIDTH 636 0
DWIDTH 16 0
BBX 17 15 1 0
BITMAP
300100
180380
1c0700
0e0c00
061800
033000
03e000
01c000
03e000
066000
0c3000
183800
701c00
e00c00
400600
ENDCHAR
STARTCHAR Rcaron
ENCODING 216
SWIDTH 711 0
DWIDTH 18 0
BBX 17 23 1 0
BITMAP
018600
00cc00
00f800
007000
000000
1ffe00
078f80
078780
070780
070780
0f0780
0f0700
0f0e00
0f1c00
0ff800
1e7800
1e7800
1e3c00
1c3c00
1c1e00
3c1e00
3c0f00
fe0f80
ENDCHAR
STARTCHAR Uring
ENCODING 217
SWIDTH 775 0
DWIDTH 19 0
BBX 19 23 4 0
BITMAP
006000
009000
009000
006000
000000
ff07e0
3c0380
3c0300
380300
380200
780200
780200
780200
700600
f00400
f00400
f00400
f00400
f00800
f00800
701000
382000
1fc000
ENDCHAR
STARTCHAR Uacute
ENCODING 218
SWIDTH 775 0
DWIDTH 19 0
BBX 19 23 4 0
BITMAP
001e00
003800
007000
00c000
000000
ff07e0
3c0380
3c0300
380300
380200
780200
780200
780200
700600
f00400
f00400
f00400
f00400
f00800
f00800
701000
382000
1fc000
ENDCHAR
STARTCHAR Udoubleacute
ENCODING 219
SWIDTH 775 0
DWIDTH 19 0
BBX 19 23 4 0
BITMAP
003f00
006c00
00c800
01b000
000000
ff07e0
3c0380
3c0300
380300
380200
780200
780200
780200
700600
f00400
f00400
f00400
f00400
f00800
f00800
701000
382000
1fc000
ENDCHAR
STARTCHAR Udiaeresis
ENCODING 220
SWIDTH 775 0
DWIDTH 19 0
BBX 19 22 4 0
BITMAP
039c00
039c00
039c00
000000
ff07e0
3c0380
3c0300
380300
380200
780200
780200
780200
700600
f00400
f00400
f00400
f00400
f00800
f00800
701000
382000
1fc000
ENDCHAR
STARTCHAR Yacute
ENCODING 221
SWIDTH 669 0
DWIDTH 17 0
BBX 17 23 3 0
BITMAP
003c00
007000
00e000
018000
000000
fe0f80
7c0600
3c0400
3c0c00
1c1800
1e3000
1e2000
0f6000
0fc000
078000
070000
0f0000
0f0000
0f0000
0f0000
0e0000
1e0000
7f8000
ENDCHAR
STARTCHAR Tcedilla
ENCODING 222
SWIDTH 716 0
DWIDTH 18 0
BBX 18 23 3 -5
BITMAP
7fffc0
e1e0c0
c1e080
c1e180
03c000
03c000
03c000
03c000
03c000
038000
078000
078000
078000
078000
070000
0f0000
0f0000
7fc000
00c000
018000
006000
006000
03c000
ENDCHAR
STARTCHAR ssharp
ENCODING 223
SWIDTH 656 0
DWIDTH 16 0
BBX 15 25 1 -5
BITMAP
01f8
039c
071c
071c
0f1c
0e18
0e30
1e60
1e40
1ee0
1cf0
1cf8
3c7c
3c3c
3c1e
380e
380e
798e
799c
79f8
7000
7000
f000
f000
f000
ENDCHAR
STARTCHAR racute
ENCODING 224
SWIDTH 496 0
DWIDTH 12 0
BBX 14 18 2 0
BITMAP
003c
0070
00e0
0180
0000
7c38
3c70
3cf0
3d80
3e00
3e00
7c00
7800
7800
7000
7000
f000
f000
ENDCHAR
STARTCHAR aacute
ENCODING 225
SWIDTH 634 0
DWIDTH 16 0
BBX 15 18 2 0
BITMAP
001e
0038
0070
00c0
0000
01fe
063e
0c1c
181c
383c
703c
707c
f0b8
f1f8
f378
fe78
fc78
787c
ENDCHAR
STARTCHAR acircumflex
ENCODING 226
SWIDTH 634 0
DWIDTH 16 0
BBX 15 18 2 0
BITMAP
0070
00f8
01d8
030c
0000
01fe
063e
0c1c
181c
383c
703c
707c
f0b8
f1f8
f378
fe78
fc78
787c
ENDCHAR
STARTCHAR abreve
ENCODING 227
SWIDTH 634 0
DWIDTH 16 0
BBX 15 18 2 0
BITMAP
0206
038c
01f8
00f0
0000
01fe
063e
0c1c
181c
383c
703c
707c
f0b8
f1f8
f378
fe78
fc78
787c
ENDCHAR
STARTCHAR adiaeresis
ENCODING 228
SWIDTH 634 0
DWIDTH 16 0
BBX 15 17 2 0
BITMAP
039c
039c
039c
0000
01fe
063e
0c1c
181c
383c
703c
707c
f0b8
f1f8
f378
fe78
fc78
787c
ENDCHAR
STARTCHAR lacute
ENCODING 229
SWIDTH 319 0
DWIDTH 8 0
BBX 11 23 2 0
BITMAP
01e0
0380
0700
0c00
0000
3e00
1e00
1e00
1c00
1c00
3c00
3c00
3c00
3800
3800
7800
7800
7800
7000
7000
f000
f000
f800
ENDCHAR
STARTCHAR cacute
ENCODING 230
SWIDTH 524 0
DWIDTH 13 0
BBX 15 18 2 0
BITMAP
001e
0038
0070
00c0
0000
03f0
0e38
1c30
3830
7800
7000
f000
f000
f000
f000
f000
7820
3fc0
ENDCHAR
STARTCHAR ccedilla
ENCODING 231
SWIDTH 524 0
DWIDTH 13 0
BBX 13 18 2 -5
BITMAP
03f0
0e38
1c30
3830
7800
7000
f000
f000
f000
f000
f000
7820
3fc0
1800
3000
0c00
0c00
7800
ENDCHAR
STARTCHAR ccaron
ENCODING 232
SWIDTH 524 0
DWIDTH 13 0
BBX 13 18 2 0
BITMAP
0618
0330
03e0
01c0
0000
03f0
0e38
1c30
3830
7800
7000
f000
f000
f000
f000
f000
7820
3fc0
ENDCHAR
STARTCHAR eacute
ENCODING 233
SWIDTH 548 0
DWIDTH 14 0
BBX 13 18 2 0
BITMAP
0078
00e0
01c0
0300
0000
03e0
0cf0
1870
3870
7070
70e0
f3c0
ff00
f000
f000
f010
7870
3f80
ENDCHAR
STARTCHAR eogonek
ENCODING 234
SWIDTH 548 0
DWIDTH 14 0
BBX 12 17 2 -4
BITMAP
03e0
0cf0
1870
3870
7070
70e0
f3c0
ff00
f000
f000
f010
7870
3f80
0600
0c00
0d00
0700
ENDCHAR
STARTCHAR ediaeresis
ENCODING 235
SWIDTH 548 0
DWIDTH 14 0
BBX 13 17 2 0
BITMAP
0738
0738
0738
0000
03e0
0cf0
1870
3870
7070
70e0
f3c0
ff00
f000
f000
f010
7870
3f80
ENDCHAR
STARTCHAR ecaron
ENCODING 236
SWIDTH 548 0
DWIDTH 14 0
BBX 12 18 2 0
BITMAP
0c30
0660
07c0
0380
0000
03e0
0cf0
1870
3870
7070
70e0
f3c0
ff00
f000
f000
f010
7870
3f80
ENDCHAR
STARTCHAR iacute
ENCODING 237
SWIDTH 319 0
DWIDTH 8 0
BBX 10 18 2 0
BITMAP
03c0
0700
0e00
1800
0000
fc00
3c00
3c00
3800
3800
7800
7800
7800
7000
7000
f000
f000
fc00
ENDCHAR
STARTCHAR icircumflex
ENCODING 238
SWIDTH 319 0
DWIDTH 8 0
BBX 9 18 2 0
BITMAP
0e00
1f00
3b00
6180
0000
fc00
3c00
3c00
3800
3800
7800
7800
7800
7000
7000
f000
f000
fc00
ENDCHAR
STARTCHAR dcaron
ENCODING 239
SWIDTH 920 0
DWIDTH 23 0
BBX 23 20 2 0
BITMAP
00001e
00003e
003f3c
000f1c
000e1c
000e18
001e70
01fe00
063e00
0c1c00
183c00
383c00
703c00
707800
f0b800
f1f800
f37800
fe7800
fc7800
78fc00
ENDCHAR
STARTCHAR dstroke
ENCODING 240
SWIDTH 760 0
DWIDTH 19 0
BBX 19 18 2 0
BITMAP
003f00
000f00
007fe0
007fe0
001e00
01fe00
063e00
0c1c00
183c00
383c00
703c00
707800
f0b800
f1f800
f37800
fe7800
fc7800
78fc00
ENDCHAR
STARTCHAR nacute
ENCODING 241
SWIDTH 656 0
DWIDTH 16 0
BBX 14 18 2 0
BITMAP
003c
0070
00e0
0180
0000
fc38
3cfc
3cfc
393c
3a3c
3c38
7c38
7878
7878
7078
7070
f070
f0fc
ENDCHAR
STARTCHAR ncaron
ENCODING 242
SWIDTH 656 0
DWIDTH 16 0
BBX 14 18 2 0
BITMAP
0c30
0660
07c0
0380
0000
fc38
3cfc
3cfc
393c
3a3c
3c38
7c38
7878
7878
7078
7070
f070
f0fc
ENDCHAR
STARTCHAR oacute
ENCODING 243
SWIDTH 599 0
DWIDTH 15 0
BBX 14 18 2 0
BITMAP
003c
0070
00e0
0180
0000
03e0
0e38
1c38
383c
783c
703c
f03c
f038
f078
f070
f0e0
79c0
3f00
ENDCHAR
STARTCHAR ocircumflex
ENCODING 244
SWIDTH 599 0
DWIDTH 15 0
BBX 14 18 2 0
BITMAP
00e0
01f0
03b0
0618
0000
03e0
0e38
1c38
383c
783c
703c
f03c
f038
f078
f070
f0e0
79c0
3f00
ENDCHAR
STARTCHAR odoubleacute
ENCODING 245
SWIDTH 599 0
DWIDTH 15 0
BBX 15 18 2 0
BITMAP
007e
00d8
0190
0360
0000
03e0
0e38
1c38
383c
783c
703c
f03c
f038
f078
f070
f0e0
79c0
3f00
ENDCHAR
STARTCHAR odiaeresis
ENCODING 246
SWIDTH 599 0
DWIDTH 15 0
BBX 14 17 2 0
BITMAP
0738
0738
0738
0000
03e0
0e38
1c38
383c
783c
703c
f03c
f038
f078
f070
f0e0
79c0
3f00
ENDCHAR
STARTCHAR division
ENCODING 247
SWIDTH 636 0
DWIDTH 16 0
BBX 15 13 2 0
BITMAP
01c0
01c0
01c0
0000
0000
0000
fffe
0000
0000
0000
0700
0700
0700
ENDCHAR
STARTCHAR rcaron
ENCODING 248
SWIDTH 496 0
DWIDTH 12 0
BBX 13 18 2 0
BITMAP
0c30
0660
07c0
0380
0000
7c38
3c70
3cf0
3d80
3e00
3e00
7c00
7800
7800
7000
7000
f000
f000
ENDCHAR
STARTCHAR uring
ENCODING 249
SWIDTH 655 0
DWIDTH 16 0
BBX 14 18 3 0
BITMAP
0180
0240
0240
0180
0000
fcfc
383c
3838
7838
7878
7878
70f8
70f0
f170
f370
fef0
fcf0
70fc
ENDCHAR
STARTCHAR uacute
ENCODING 250
SWIDTH 655 0
DWIDTH 16 0
BBX 14 18 3 0
BITMAP
003c
0070
00e0
0180
0000
fcfc
383c
3838
7838
7878
7878
70f8
70f0
f170
f370
fef0
fcf0
70fc
ENDCHAR
STARTCHAR udoubleacute
ENCODING 251
SWIDTH 655 0
DWIDTH 16 0
BBX 14 18 3 0
BITMAP
00fc
01b0
0320
06c0
0000
fcfc
383c
3838
7838
7878
7878
70f8
70f0
f170
f370
fef0
fcf0
70fc
ENDCHAR
STARTCHAR udiaeresis
ENCODING 252
SWIDTH 655 0
DWIDTH 16 0
BBX 14 17 3 0
BITMAP
0738
0738
0738
0000
fcfc
383c
3838
7838
7878
7878
70f8
70f0
f170
f370
fef0
fcf0
70fc
ENDCHAR
STARTCHAR yacute
ENCODING 253
SWIDTH 586 0
DWIDTH 15 0
BBX 17 23 0 -5
BITMAP
000f00
001c00
003800
006000
000000
3f0780
0f0380
0f0380
078300
078600
078600
038c00
039800
03b000
03e000
03c000
01c000
018000
030000
060000
0c0000
180000
f80000
ENDCHAR
STARTCHAR tcedilla
ENCODING 254
SWIDTH 375 0
DWIDTH 9 0
BBX 9 22 2 -5
BITMAP
0c00
1c00
3c00
3c00
ff80
3c00
3800
3800
7800
7800
7800
7000
f000
f000
f000
7200
3c00
0c00
1800
0600
0600
3c00
ENDCHAR
STARTCHAR abovedot
ENCODING 255
SWIDTH 599 0
DWIDTH 15 0
BBX 4 3 9 15
BITMAP
70
f0
e0
ENDCHAR
ENDFONT
